# xmcd
#
# Track frame offsets: 
#        150
#        41181
#        64693
#        92006
#        119558
#        154841
#
# Disc length: 2454 seconds
#
# Revision: 0
# Processed by: cddbd v1.5.2PL0 Copyright (c) Steve Scherf et al.
# Submitted via: ExactAudioCopy v0.95b4
#
DISCID=4e099406
DTITLE=Stare Case - Bouquets For The Living 2CD-R - Disc 2 (American T
DTITLE=apes - AM902 - 07 July 2011)
DYEAR=2011
DGENRE=Avantgarde
TTITLE0=Bouquets For The Living - Disc 2 - Track 1 - Untitled
TTITLE1=Bouquets For The Living - Disc 2 - Track 2 - Untitled
TTITLE2=Bouquets For The Living - Disc 2 - Track 3 - Untitled
TTITLE3=Bouquets For The Living - Disc 2 - Track 4 - Untitled
TTITLE4=Bouquets For The Living - Disc 2 - Track 5 - Untitled
TTITLE5=Bouquets For The Living - Disc 2 - Track 6 - Untitled
EXTD=
EXTT0=
EXTT1=
EXTT2=
EXTT3=
EXTT4=
EXTT5=
PLAYORDER=
